<svg width="29" height="29" viewBox="0 0 29 29" fill="none" xmlns="http://www.w3.org/2000/svg">
<path d="M5.208 23V19.232H9.192V23H5.208Z" fill="#57F2AA"/>
<path d="M19.2626 23V13.496H16.3346V10.736H19.2626V9.56C19.2626 8.712 19.4786 7.992 19.9106 7.4C20.3586 6.792 20.9826 6.328 21.7826 6.008C22.5826 5.688 23.5026 5.528 24.5426 5.528C24.9906 5.528 25.5026 5.576 26.0786 5.672C26.6546 5.768 27.1186 5.896 27.4706 6.056V8.456C27.2466 8.376 26.9586 8.304 26.6066 8.24C26.2546 8.16 25.9426 8.12 25.6706 8.12C25.1746 8.12 24.7266 8.168 24.3266 8.264C23.9266 8.344 23.6146 8.52 23.3906 8.792C23.1666 9.064 23.0546 9.464 23.0546 9.992V10.736H27.3266V13.496H23.0546V23H19.2626ZM16.3106 23V20.288H27.3986V23H16.3106Z" fill="#302A59"/>
</svg>
